<mxfile host="app.diagrams.net" modified="2023-08-17T08:36:25.916Z" agent="Mozilla/5.0 (Windows NT 10.0; Win64; x64) AppleWebKit/537.36 (KHTML, like Gecko) Chrome/115.0.0.0 Safari/537.36" etag="h8-BcDJDi0GrhYZaGbcg" version="21.6.2" type="device">
  <diagram name="Page-1" id="81OYs7Oa1kcVZe6Lnoz_">
    <mxGraphModel dx="880" dy="470" grid="1" gridSize="10" guides="1" tooltips="1" connect="1" arrows="1" fold="1" page="1" pageScale="1" pageWidth="850" pageHeight="1100" math="0" shadow="0">
      <root>
        <mxCell id="0" />
        <mxCell id="1" parent="0" />
        <mxCell id="HyjH0d2A6tbmo8P2zEGz-1" value="&lt;b&gt;START&lt;/b&gt;" style="ellipse;whiteSpace=wrap;html=1;fillColor=#dae8fc;strokeColor=#6c8ebf;" vertex="1" parent="1">
          <mxGeometry x="20" y="70" width="100" height="60" as="geometry" />
        </mxCell>
        <mxCell id="HyjH0d2A6tbmo8P2zEGz-2" value="&lt;font style=&quot;font-size: 13px;&quot;&gt;Read the cardpayments.xslx and cashpayment.xslx excel files into cardPaymentsDT and CashPaymentDT datatables respectively&lt;/font&gt;" style="rounded=0;whiteSpace=wrap;html=1;" vertex="1" parent="1">
          <mxGeometry x="145" y="55" width="280" height="90" as="geometry" />
        </mxCell>
        <mxCell id="HyjH0d2A6tbmo8P2zEGz-3" value="Merge the cash payment and cardpayments datatables into a combined payments data table" style="rounded=0;whiteSpace=wrap;html=1;" vertex="1" parent="1">
          <mxGeometry x="460" y="60" width="190" height="80" as="geometry" />
        </mxCell>
        <mxCell id="HyjH0d2A6tbmo8P2zEGz-4" value="excel and internal application" style="text;html=1;align=center;verticalAlign=middle;resizable=0;points=[];autosize=1;strokeColor=none;fillColor=none;" vertex="1" parent="1">
          <mxGeometry x="180" y="145" width="180" height="30" as="geometry" />
        </mxCell>
        <mxCell id="HyjH0d2A6tbmo8P2zEGz-5" value="Build a new summerizedDT with columns &quot;expense&quot; , &quot;amount&quot; and percentage" style="rounded=0;whiteSpace=wrap;html=1;" vertex="1" parent="1">
          <mxGeometry x="690" y="60" width="140" height="80" as="geometry" />
        </mxCell>
        <mxCell id="HyjH0d2A6tbmo8P2zEGz-6" value="for each row in combinedDT, add a row called totalAmount to the summerizedDT for corresponding expense grouped by &quot;expense&quot;" style="rounded=0;whiteSpace=wrap;html=1;" vertex="1" parent="1">
          <mxGeometry x="650" y="210" width="180" height="80" as="geometry" />
        </mxCell>
        <mxCell id="HyjH0d2A6tbmo8P2zEGz-7" value="Calculate the total sum of expenses in summarizedDT" style="rounded=0;whiteSpace=wrap;html=1;" vertex="1" parent="1">
          <mxGeometry x="430" y="210" width="185" height="80" as="geometry" />
        </mxCell>
        <mxCell id="HyjH0d2A6tbmo8P2zEGz-8" value="For each row in summarizedDT, Calculate the percentage for each expense category based on total sum&lt;br/&gt;&lt;br/&gt;" style="rounded=0;whiteSpace=wrap;html=1;" vertex="1" parent="1">
          <mxGeometry x="130" y="210" width="250" height="80" as="geometry" />
        </mxCell>
        <mxCell id="HyjH0d2A6tbmo8P2zEGz-9" value="Calculate the percentage for each expense category based on total sum" style="rounded=0;whiteSpace=wrap;html=1;" vertex="1" parent="1">
          <mxGeometry x="130" y="380" width="260" height="100" as="geometry" />
        </mxCell>
        <mxCell id="HyjH0d2A6tbmo8P2zEGz-10" value="Write summarizedDT to an output Excel file called percentages" style="rounded=0;whiteSpace=wrap;html=1;" vertex="1" parent="1">
          <mxGeometry x="470" y="380" width="340" height="90" as="geometry" />
        </mxCell>
        <mxCell id="HyjH0d2A6tbmo8P2zEGz-12" value="END" style="ellipse;whiteSpace=wrap;html=1;fillColor=#dae8fc;strokeColor=#6c8ebf;" vertex="1" parent="1">
          <mxGeometry x="680" y="550" width="120" height="80" as="geometry" />
        </mxCell>
        <mxCell id="HyjH0d2A6tbmo8P2zEGz-13" value="excel and internall app" style="text;html=1;align=center;verticalAlign=middle;resizable=0;points=[];autosize=1;strokeColor=none;fillColor=none;" vertex="1" parent="1">
          <mxGeometry x="570" y="470" width="140" height="30" as="geometry" />
        </mxCell>
        <mxCell id="HyjH0d2A6tbmo8P2zEGz-14" value="internal app" style="text;html=1;strokeColor=none;fillColor=none;align=center;verticalAlign=middle;whiteSpace=wrap;rounded=0;" vertex="1" parent="1">
          <mxGeometry x="200" y="480" width="90" height="30" as="geometry" />
        </mxCell>
        <mxCell id="HyjH0d2A6tbmo8P2zEGz-15" value="internal app" style="text;html=1;strokeColor=none;fillColor=none;align=center;verticalAlign=middle;whiteSpace=wrap;rounded=0;" vertex="1" parent="1">
          <mxGeometry x="705" y="290" width="110" height="30" as="geometry" />
        </mxCell>
        <mxCell id="HyjH0d2A6tbmo8P2zEGz-16" value="internal app" style="text;html=1;strokeColor=none;fillColor=none;align=center;verticalAlign=middle;whiteSpace=wrap;rounded=0;" vertex="1" parent="1">
          <mxGeometry x="480" y="290" width="80" height="30" as="geometry" />
        </mxCell>
        <mxCell id="HyjH0d2A6tbmo8P2zEGz-17" value="internal app" style="text;html=1;strokeColor=none;fillColor=none;align=center;verticalAlign=middle;whiteSpace=wrap;rounded=0;" vertex="1" parent="1">
          <mxGeometry x="190" y="290" width="80" height="30" as="geometry" />
        </mxCell>
        <mxCell id="HyjH0d2A6tbmo8P2zEGz-18" value="internal app" style="text;html=1;strokeColor=none;fillColor=none;align=center;verticalAlign=middle;whiteSpace=wrap;rounded=0;" vertex="1" parent="1">
          <mxGeometry x="492.5" y="140" width="107.5" height="30" as="geometry" />
        </mxCell>
        <mxCell id="HyjH0d2A6tbmo8P2zEGz-19" value="internal app" style="text;html=1;strokeColor=none;fillColor=none;align=center;verticalAlign=middle;whiteSpace=wrap;rounded=0;" vertex="1" parent="1">
          <mxGeometry x="720" y="140" width="80" height="30" as="geometry" />
        </mxCell>
        <mxCell id="HyjH0d2A6tbmo8P2zEGz-20" value="" style="endArrow=none;dashed=1;html=1;rounded=0;entryX=0;entryY=1;entryDx=0;entryDy=0;" edge="1" parent="1" target="HyjH0d2A6tbmo8P2zEGz-2">
          <mxGeometry width="50" height="50" relative="1" as="geometry">
            <mxPoint x="410" y="150" as="sourcePoint" />
            <mxPoint x="440" y="230" as="targetPoint" />
            <Array as="points">
              <mxPoint x="410" y="170" />
              <mxPoint x="145" y="170" />
            </Array>
          </mxGeometry>
        </mxCell>
        <mxCell id="HyjH0d2A6tbmo8P2zEGz-21" value="" style="endArrow=none;dashed=1;html=1;rounded=0;entryX=1;entryY=1;entryDx=0;entryDy=0;exitX=0;exitY=1;exitDx=0;exitDy=0;" edge="1" parent="1" source="HyjH0d2A6tbmo8P2zEGz-3" target="HyjH0d2A6tbmo8P2zEGz-3">
          <mxGeometry width="50" height="50" relative="1" as="geometry">
            <mxPoint x="450" y="160" as="sourcePoint" />
            <mxPoint x="440" y="230" as="targetPoint" />
            <Array as="points">
              <mxPoint x="460" y="170" />
              <mxPoint x="650" y="170" />
            </Array>
          </mxGeometry>
        </mxCell>
        <mxCell id="HyjH0d2A6tbmo8P2zEGz-23" value="" style="endArrow=none;dashed=1;html=1;rounded=0;entryX=1;entryY=1;entryDx=0;entryDy=0;exitX=0;exitY=1;exitDx=0;exitDy=0;" edge="1" parent="1" source="HyjH0d2A6tbmo8P2zEGz-7" target="HyjH0d2A6tbmo8P2zEGz-7">
          <mxGeometry width="50" height="50" relative="1" as="geometry">
            <mxPoint x="390" y="280" as="sourcePoint" />
            <mxPoint x="440" y="230" as="targetPoint" />
            <Array as="points">
              <mxPoint x="430" y="320" />
              <mxPoint x="615" y="320" />
            </Array>
          </mxGeometry>
        </mxCell>
        <mxCell id="HyjH0d2A6tbmo8P2zEGz-24" value="" style="endArrow=none;dashed=1;html=1;rounded=0;exitX=1;exitY=1;exitDx=0;exitDy=0;entryX=0;entryY=1.088;entryDx=0;entryDy=0;entryPerimeter=0;" edge="1" parent="1" source="HyjH0d2A6tbmo8P2zEGz-8" target="HyjH0d2A6tbmo8P2zEGz-8">
          <mxGeometry width="50" height="50" relative="1" as="geometry">
            <mxPoint x="390" y="280" as="sourcePoint" />
            <mxPoint x="440" y="230" as="targetPoint" />
            <Array as="points">
              <mxPoint x="380" y="320" />
              <mxPoint x="130" y="320" />
            </Array>
          </mxGeometry>
        </mxCell>
        <mxCell id="HyjH0d2A6tbmo8P2zEGz-25" value="" style="endArrow=none;dashed=1;html=1;rounded=0;entryX=1;entryY=1;entryDx=0;entryDy=0;exitX=0;exitY=1;exitDx=0;exitDy=0;" edge="1" parent="1" source="HyjH0d2A6tbmo8P2zEGz-6" target="HyjH0d2A6tbmo8P2zEGz-6">
          <mxGeometry width="50" height="50" relative="1" as="geometry">
            <mxPoint x="390" y="280" as="sourcePoint" />
            <mxPoint x="440" y="230" as="targetPoint" />
            <Array as="points">
              <mxPoint x="650" y="320" />
              <mxPoint x="830" y="320" />
            </Array>
          </mxGeometry>
        </mxCell>
        <mxCell id="HyjH0d2A6tbmo8P2zEGz-27" value="" style="endArrow=none;dashed=1;html=1;rounded=0;entryX=1;entryY=1;entryDx=0;entryDy=0;exitX=0;exitY=1;exitDx=0;exitDy=0;" edge="1" parent="1" source="HyjH0d2A6tbmo8P2zEGz-10" target="HyjH0d2A6tbmo8P2zEGz-10">
          <mxGeometry width="50" height="50" relative="1" as="geometry">
            <mxPoint x="390" y="530" as="sourcePoint" />
            <mxPoint x="440" y="480" as="targetPoint" />
            <Array as="points">
              <mxPoint x="470" y="500" />
              <mxPoint x="810" y="500" />
            </Array>
          </mxGeometry>
        </mxCell>
        <mxCell id="HyjH0d2A6tbmo8P2zEGz-28" value="" style="endArrow=none;dashed=1;html=1;rounded=0;entryX=1;entryY=1;entryDx=0;entryDy=0;exitX=0;exitY=1;exitDx=0;exitDy=0;" edge="1" parent="1" source="HyjH0d2A6tbmo8P2zEGz-9" target="HyjH0d2A6tbmo8P2zEGz-9">
          <mxGeometry width="50" height="50" relative="1" as="geometry">
            <mxPoint x="210" y="610" as="sourcePoint" />
            <mxPoint x="440" y="480" as="targetPoint" />
            <Array as="points">
              <mxPoint x="130" y="500" />
              <mxPoint x="390" y="500" />
            </Array>
          </mxGeometry>
        </mxCell>
        <mxCell id="HyjH0d2A6tbmo8P2zEGz-29" value="" style="endArrow=classic;html=1;rounded=0;entryX=0.417;entryY=-0.05;entryDx=0;entryDy=0;entryPerimeter=0;" edge="1" parent="1" target="HyjH0d2A6tbmo8P2zEGz-12">
          <mxGeometry width="50" height="50" relative="1" as="geometry">
            <mxPoint x="730" y="500" as="sourcePoint" />
            <mxPoint x="440" y="480" as="targetPoint" />
          </mxGeometry>
        </mxCell>
        <mxCell id="HyjH0d2A6tbmo8P2zEGz-31" value="" style="endArrow=classic;html=1;rounded=0;entryX=0.435;entryY=-0.03;entryDx=0;entryDy=0;entryPerimeter=0;" edge="1" parent="1" target="HyjH0d2A6tbmo8P2zEGz-9">
          <mxGeometry width="50" height="50" relative="1" as="geometry">
            <mxPoint x="240" y="320" as="sourcePoint" />
            <mxPoint x="440" y="480" as="targetPoint" />
          </mxGeometry>
        </mxCell>
        <mxCell id="HyjH0d2A6tbmo8P2zEGz-32" value="" style="endArrow=classic;html=1;rounded=0;entryX=0;entryY=0.5;entryDx=0;entryDy=0;" edge="1" parent="1" target="HyjH0d2A6tbmo8P2zEGz-3">
          <mxGeometry width="50" height="50" relative="1" as="geometry">
            <mxPoint x="430" y="100" as="sourcePoint" />
            <mxPoint x="440" y="270" as="targetPoint" />
          </mxGeometry>
        </mxCell>
        <mxCell id="HyjH0d2A6tbmo8P2zEGz-33" value="" style="endArrow=classic;html=1;rounded=0;entryX=0;entryY=0.5;entryDx=0;entryDy=0;exitX=1;exitY=0.5;exitDx=0;exitDy=0;" edge="1" parent="1" source="HyjH0d2A6tbmo8P2zEGz-3" target="HyjH0d2A6tbmo8P2zEGz-5">
          <mxGeometry width="50" height="50" relative="1" as="geometry">
            <mxPoint x="390" y="320" as="sourcePoint" />
            <mxPoint x="440" y="270" as="targetPoint" />
          </mxGeometry>
        </mxCell>
        <mxCell id="HyjH0d2A6tbmo8P2zEGz-34" value="" style="endArrow=classic;html=1;rounded=0;entryX=0;entryY=0.5;entryDx=0;entryDy=0;exitX=1;exitY=0.5;exitDx=0;exitDy=0;" edge="1" parent="1" source="HyjH0d2A6tbmo8P2zEGz-1" target="HyjH0d2A6tbmo8P2zEGz-2">
          <mxGeometry width="50" height="50" relative="1" as="geometry">
            <mxPoint x="390" y="320" as="sourcePoint" />
            <mxPoint x="440" y="270" as="targetPoint" />
          </mxGeometry>
        </mxCell>
        <mxCell id="HyjH0d2A6tbmo8P2zEGz-35" value="" style="endArrow=classic;html=1;rounded=0;exitX=-0.011;exitY=0.625;exitDx=0;exitDy=0;exitPerimeter=0;" edge="1" parent="1" source="HyjH0d2A6tbmo8P2zEGz-6">
          <mxGeometry width="50" height="50" relative="1" as="geometry">
            <mxPoint x="390" y="320" as="sourcePoint" />
            <mxPoint x="620" y="260" as="targetPoint" />
          </mxGeometry>
        </mxCell>
        <mxCell id="HyjH0d2A6tbmo8P2zEGz-36" value="" style="endArrow=classic;html=1;rounded=0;entryX=1;entryY=0.5;entryDx=0;entryDy=0;exitX=0;exitY=0.5;exitDx=0;exitDy=0;" edge="1" parent="1" source="HyjH0d2A6tbmo8P2zEGz-7" target="HyjH0d2A6tbmo8P2zEGz-8">
          <mxGeometry width="50" height="50" relative="1" as="geometry">
            <mxPoint x="390" y="320" as="sourcePoint" />
            <mxPoint x="440" y="270" as="targetPoint" />
          </mxGeometry>
        </mxCell>
        <mxCell id="HyjH0d2A6tbmo8P2zEGz-37" value="" style="endArrow=none;dashed=1;html=1;rounded=0;entryX=1;entryY=1;entryDx=0;entryDy=0;exitX=0.079;exitY=1.038;exitDx=0;exitDy=0;exitPerimeter=0;" edge="1" parent="1" source="HyjH0d2A6tbmo8P2zEGz-5" target="HyjH0d2A6tbmo8P2zEGz-5">
          <mxGeometry width="50" height="50" relative="1" as="geometry">
            <mxPoint x="390" y="320" as="sourcePoint" />
            <mxPoint x="440" y="270" as="targetPoint" />
            <Array as="points">
              <mxPoint x="700" y="170" />
              <mxPoint x="830" y="170" />
            </Array>
          </mxGeometry>
        </mxCell>
        <mxCell id="HyjH0d2A6tbmo8P2zEGz-38" value="" style="endArrow=classic;html=1;rounded=0;entryX=0.606;entryY=-0.062;entryDx=0;entryDy=0;entryPerimeter=0;" edge="1" parent="1" target="HyjH0d2A6tbmo8P2zEGz-6">
          <mxGeometry width="50" height="50" relative="1" as="geometry">
            <mxPoint x="759" y="170" as="sourcePoint" />
            <mxPoint x="440" y="270" as="targetPoint" />
          </mxGeometry>
        </mxCell>
        <mxCell id="HyjH0d2A6tbmo8P2zEGz-39" value="" style="endArrow=classic;html=1;rounded=0;entryX=-0.012;entryY=0.678;entryDx=0;entryDy=0;entryPerimeter=0;exitX=1.012;exitY=0.6;exitDx=0;exitDy=0;exitPerimeter=0;" edge="1" parent="1" source="HyjH0d2A6tbmo8P2zEGz-9" target="HyjH0d2A6tbmo8P2zEGz-10">
          <mxGeometry width="50" height="50" relative="1" as="geometry">
            <mxPoint x="390" y="450" as="sourcePoint" />
            <mxPoint x="440" y="400" as="targetPoint" />
          </mxGeometry>
        </mxCell>
      </root>
    </mxGraphModel>
  </diagram>
</mxfile>
